<svg width="33" height="31" viewBox="0 0 33 31" fill="none" xmlns="http://www.w3.org/2000/svg">
<g id="&#240;&#159;&#166;&#134; icon &#34;Ethereum Cryptocurrency&#34;">
<g id="Group">
<path id="Vector" d="M16.1207 30.9628C24.9657 30.9628 32.136 24.0316 32.136 15.4814C32.136 6.93127 24.9657 0 16.1207 0C7.27574 0 0.105469 6.93127 0.105469 15.4814C0.105469 24.0316 7.27574 30.9628 16.1207 30.9628Z" fill="#627EEA"/>
<g id="Vector_2">
<path d="M16.6177 3.87109V12.4536L24.1218 15.695L16.6177 3.87109Z" fill="white" fill-opacity="0.602"/>
<path d="M16.6177 3.87109L9.11328 15.695L16.6177 12.4536V3.87109Z" fill="white"/>
<path d="M16.6177 21.2566V27.0883L24.1268 17.0457L16.6177 21.2566Z" fill="white" fill-opacity="0.602"/>
<path d="M16.6177 27.0883L16.6184 21.2557L9.11328 17.0457L16.6177 27.0883Z" fill="white"/>
<path d="M16.6177 19.9086L24.1218 15.6967L16.6177 12.4572V19.9086Z" fill="white" fill-opacity="0.2"/>
<path d="M9.11328 15.6967L16.6177 19.9086V12.4572L9.11328 15.6967Z" fill="white" fill-opacity="0.602"/>
</g>
</g>
</g>
</svg>
