<svg xmlns="http://www.w3.org/2000/svg" xmlns:xlink="http://www.w3.org/1999/xlink" viewBox="0,0,256,256" width="512px" height="512px"><g fill="#ffffff" fill-rule="nonzero" stroke="none" stroke-width="1" stroke-linecap="butt" stroke-linejoin="miter" stroke-miterlimit="10" stroke-dasharray="" stroke-dashoffset="0" font-family="none" font-weight="none" font-size="none" text-anchor="none" style="mix-blend-mode: normal"><g transform="scale(2,2)"><path d="M14,1c-7.2,0 -13,5.8 -13,13v14v86c0,7.2 5.8,13 13,13h100c7.2,0 13,-5.8 13,-13v-100c0,-7.2 -5.8,-13 -13,-13zM14,7h100c3.9,0 7,3.1 7,7v15h-114v-15c0,-3.9 3.1,-7 7,-7zM18,15c-1.7,0 -3,1.3 -3,3c0,1.7 1.3,3 3,3h4c1.7,0 3,-1.3 3,-3c0,-1.7 -1.3,-3 -3,-3zM34,15c-1.7,0 -3,1.3 -3,3c0,1.7 1.3,3 3,3h4c1.7,0 3,-1.3 3,-3c0,-1.7 -1.3,-3 -3,-3zM7,35h114v79c0,3.9 -3.1,7 -7,7h-100c-3.9,0 -7,-3.1 -7,-7zM49,55c-5.5,0 -10,4.5 -10,10c0,5.5 4.5,10 10,10c5.5,0 10,-4.5 10,-10c0,-5.5 -4.5,-10 -10,-10zM81.36328,55.9375c-0.7625,0.0375 -1.5125,0.36289 -2.0625,0.96289l-35,38.29883c-1.1,1.2 -1.00078,3.10117 0.19922,4.20117c0.6,0.5 1.3,0.79883 2,0.79883c0.8,0 1.59922,-0.3 2.19922,-1l35,-38.29883c1.1,-1.2 1.00078,-3.10117 -0.19922,-4.20117c-0.6,-0.55 -1.37422,-0.79922 -2.13672,-0.76172zM49,61c2.2,0 4,1.8 4,4c0,2.2 -1.8,4 -4,4c-2.2,0 -4,-1.8 -4,-4c0,-2.2 1.8,-4 4,-4zM79,81c-5.5,0 -10,4.5 -10,10c0,5.5 4.5,10 10,10c5.5,0 10,-4.5 10,-10c0,-5.5 -4.5,-10 -10,-10zM79,87c2.2,0 4,1.8 4,4c0,2.2 -1.8,4 -4,4c-2.2,0 -4,-1.8 -4,-4c0,-2.2 1.8,-4 4,-4z"></path></g></g></svg>