<svg width="17" height="16" viewBox="0 0 17 16" fill="none" xmlns="http://www.w3.org/2000/svg">
<g id="Icons/Question-circle" clip-path="url(#clip0_551_1429)">
<path id="Vector" d="M8.72266 0C4.30469 0 0.722656 3.58332 0.722656 8C0.722656 12.4193 4.30469 16 8.72266 16C13.1406 16 16.7227 12.4193 16.7227 8C16.7227 3.58332 13.1406 0 8.72266 0ZM8.72266 14.4516C5.15711 14.4516 2.27104 11.5667 2.27104 8C2.27104 4.43565 5.15724 1.54839 8.72266 1.54839C12.2869 1.54839 15.1743 4.43455 15.1743 8C15.1743 11.5655 12.2894 14.4516 8.72266 14.4516ZM12.1821 6.21935C12.1821 8.38232 9.84598 8.41561 9.84598 9.21494V9.41935C9.84598 9.63313 9.67266 9.80645 9.45888 9.80645H7.9864C7.77262 9.80645 7.5993 9.63313 7.5993 9.41935V9.14003C7.5993 7.98697 8.4735 7.52603 9.13411 7.15564C9.70059 6.83806 10.0478 6.62206 10.0478 6.20148C10.0478 5.64516 9.33814 5.2759 8.76443 5.2759C8.0164 5.2759 7.67108 5.63 7.18566 6.24265C7.05478 6.40781 6.81598 6.43848 6.64804 6.31116L5.75049 5.63058C5.58575 5.50568 5.54885 5.27361 5.6652 5.10274C6.42737 3.98358 7.39814 3.35484 8.90956 3.35484C10.4925 3.35484 12.1821 4.59045 12.1821 6.21935ZM10.0775 11.6129C10.0775 12.36 9.46972 12.9677 8.72266 12.9677C7.97559 12.9677 7.36782 12.36 7.36782 11.6129C7.36782 10.8658 7.97559 10.2581 8.72266 10.2581C9.46972 10.2581 10.0775 10.8658 10.0775 11.6129Z" fill="white"/>
</g>
<defs>
<clipPath id="clip0_551_1429">
<rect width="16" height="16" fill="white" transform="translate(0.722656)"/>
</clipPath>
</defs>
</svg>
