<svg width="73" height="81" viewBox="0 0 73 81" fill="none" xmlns="http://www.w3.org/2000/svg">
<g clip-path="url(#clip0_234_316)">
<path d="M9.3 32.8C10.1 34.5 12.1 37.9 12.1 37.9L35 0L12.7 15.6C11.4 16.5 10.3 17.7 9.5 19.1C7.4 23.4 7.4 28.4 9.3 32.8Z" fill="url(#paint0_linear_234_316)"/>
<path d="M0.3 45.2002C0.8 52.5002 4.5 59.3002 10.3 63.7002L35 80.9002C35 80.9002 19.5 58.6002 6.5 36.4002C5.2 34.1002 4.3 31.5002 3.9 28.8002C3.7 27.6002 3.7 26.4002 3.9 25.2002C3.6 25.8002 2.9 27.1002 2.9 27.1002C1.6 29.8002 0.7 32.7002 0.2 35.7002C-0.0999997 38.9002 -0.0999997 42.1002 0.3 45.2002Z" fill="#A0A8D4"/>
<path d="M63.3 48.1996C62.5 46.4996 60.5 43.0996 60.5 43.0996L37.6 80.8996L60 65.3996C61.3 64.4996 62.4 63.2996 63.2 61.8996C65.2 57.5996 65.3 52.5996 63.3 48.1996Z" fill="url(#paint1_linear_234_316)"/>
<path d="M72.4 35.7C71.9 28.4 68.2 21.6 62.4 17.2L37.7 0C37.7 0 53.2 22.3 66.2 44.5C67.5 46.8 68.4 49.4 68.8 52.1C69 53.3 69 54.5 68.8 55.7C69.1 55.1 69.8 53.8 69.8 53.8C71.1 51.1 72 48.2 72.5 45.3C72.7 42 72.7 38.9 72.4 35.7Z" fill="#A0A8D4"/>
<path d="M9.5 19.1C10.3 17.7 11.3 16.5 12.7 15.6L35 0L12.1 37.8C12.1 37.8 10.1 34.4 9.3 32.7C7.4 28.4 7.4 23.4 9.5 19.1ZM0.3 45.2C0.8 52.5 4.5 59.3 10.3 63.7L35 80.9C35 80.9 19.5 58.6 6.5 36.4C5.2 34.1 4.3 31.5 3.9 28.8C3.7 27.6 3.7 26.4 3.9 25.2C3.6 25.8 2.9 27.1 2.9 27.1C1.6 29.8 0.7 32.7 0.2 35.7C-0.0999997 38.9 -0.0999997 42.1 0.3 45.2ZM63.3 48.2C62.5 46.5 60.5 43.1 60.5 43.1L37.6 80.9L60 65.4C61.3 64.5 62.4 63.3 63.2 61.9C65.2 57.6 65.3 52.6 63.3 48.2ZM72.3 35.8C71.8 28.5 68.1 21.7 62.3 17.3L37.7 0C37.7 0 53.2 22.3 66.2 44.5C67.5 46.8 68.4 49.4 68.8 52.1C69 53.3 69 54.5 68.8 55.7C69.1 55.1 69.8 53.8 69.8 53.8C71.1 51.1 72 48.2 72.5 45.3C72.7 42 72.7 38.9 72.3 35.8Z" fill="url(#paint2_linear_234_316)"/>
</g>
<defs>
<linearGradient id="paint0_linear_234_316" x1="36.0416" y1="0.9481" x2="6.66" y2="32.7999" gradientUnits="userSpaceOnUse">
<stop offset="0.58" stop-color="#A0A8D4"/>
<stop offset="0.73" stop-color="#8791C7"/>
<stop offset="0.91" stop-color="#6470B4"/>
</linearGradient>
<linearGradient id="paint1_linear_234_316" x1="36.6586" y1="80.0181" x2="66.0292" y2="48.189" gradientUnits="userSpaceOnUse">
<stop offset="0.58" stop-color="#A0A8D4"/>
<stop offset="0.73" stop-color="#8791C7"/>
<stop offset="0.91" stop-color="#6470B4"/>
</linearGradient>
<linearGradient id="paint2_linear_234_316" x1="36.3226" y1="-0.3999" x2="36.3226" y2="81.2" gradientUnits="userSpaceOnUse">
<stop stop-color="#513EFF"/>
<stop offset="0.18" stop-color="#5157FF"/>
<stop offset="0.57" stop-color="#5298FF"/>
<stop offset="1" stop-color="#52E5FF"/>
</linearGradient>
<clipPath id="clip0_234_316">
<rect width="72.7" height="80.9" fill="white"/>
</clipPath>
</defs>
</svg>
