<svg version="1.1" id="Layer_1" xmlns="http://www.w3.org/2000/svg" xmlns:xlink="http://www.w3.org/1999/xlink" x="0px" y="0px"
	 viewBox="0 0 1080 1008.2" style="enable-background:new 0 0 1080 1008.2;" xml:space="preserve">
<style type="text/css">
	.st0{display:none;fill:#0D67FE;}
	.st1{fill:#00C9FF;}
	.st2{fill:#FFFCF0;}
</style>
<rect class="st0" width="1080" height="1008.2"/>
<g>
	<polygon class="st1" points="885.1,199.1 885.1,436.7 193.9,717.5 	"/>
	<path class="st2" d="M755.5,188.3v410.4c0,119.3-96.7,216-216,216s-216-96.7-216-216V425.9l129.6-71.3v244.1
		c0,41.8,33.8,75.6,75.6,75.6s75.6-33.8,75.6-75.6V271.4L755.5,188.3z"/>
	<path class="st0" d="M1079,388.9l-106,0c-35.6,0-54-20.2-54-45.5c0-20.5,12-36.6,44.4-36.6l115.6,0l0-37.6l-118.6,0
		c-45.5,0-74.9,24.3-74.9,64.3c0,29.4,17.1,46.2,32.5,55.4v0.7l-27,0l0,36.9l188,0L1079,388.9z"/>
	<path class="st0" d="M0.4,597.8l106,0c35.6,0,54,20.2,54,45.5c0,20.5-12,36.6-44.4,36.6l-115.6,0l0,37.6l118.6,0
		c45.5,0,74.9-24.3,74.9-64.3c0-29.4-17.1-46.2-32.5-55.4v-0.7h27l0-36.9l-188,0L0.4,597.8z"/>
	<path class="st0" d="M717.9,0l0,106c0,35.6-20.2,54-45.5,54c-20.5,0-36.6-12-36.6-44.4l0-115.6l-37.6,0l0,118.6
		c0,45.5,24.3,74.9,64.3,74.9c29.4,0,46.2-17.1,55.4-32.5h0.7l0,27l36.9,0l0-188L717.9,0z"/>
	<path class="st0" d="M635.8,1008.2l0-106c0-35.6,20.2-54,45.5-54c20.5,0,36.6,12,36.6,44.4l0,115.6l37.6,0l0-118.6
		c0-45.5-24.3-74.9-64.3-74.9c-29.4,0-46.2,17.1-55.4,32.5h-0.7l0-27l-36.9,0l0,188L635.8,1008.2z"/>
</g>
</svg>
