<svg width="132" height="65" viewBox="0 0 132 65" fill="none" xmlns="http://www.w3.org/2000/svg">
<path d="M106.663 27.5828C106.663 26.1659 105.513 25.0155 104.096 25.0155C102.679 25.0155 101.529 26.1659 101.529 27.5828C101.529 28.9998 102.679 30.1361 104.096 30.1361C105.527 30.1502 106.663 28.9998 106.663 27.5828Z" fill="#9D44B5"/>
<path d="M126.908 27.5827C126.908 25.8431 125.505 24.4402 123.765 24.4402C122.025 24.4402 120.623 25.8431 120.623 27.5827C120.623 29.3223 122.025 30.7252 123.765 30.7252C125.505 30.7252 126.908 29.3223 126.908 27.5827Z" fill="#9D44B5"/>
<path d="M116.779 27.5828C116.779 26.0115 115.502 24.7489 113.945 24.7489C112.373 24.7489 111.111 26.0256 111.111 27.5828C111.111 29.154 112.387 30.4167 113.945 30.4167C115.502 30.4167 116.779 29.154 116.779 27.5828Z" fill="#9D44B5"/>
<path d="M76.4869 27.5828C76.4869 26.5446 75.6451 25.7029 74.607 25.7029C73.5688 25.7029 72.7271 26.5446 72.7271 27.5828C72.7271 28.6209 73.5688 29.4627 74.607 29.4627C75.6451 29.4627 76.4869 28.6209 76.4869 27.5828Z" fill="#9D44B5"/>
<path d="M66.4839 27.5828C66.4839 26.6428 65.7263 25.8853 64.7864 25.8853C63.8464 25.8853 63.0889 26.6428 63.0889 27.5828C63.0889 28.5227 63.8464 29.2803 64.7864 29.2803C65.7123 29.2803 66.4839 28.5227 66.4839 27.5828Z" fill="#9D44B5"/>
<path d="M86.5318 27.5828C86.5318 26.4324 85.5918 25.4924 84.4414 25.4924C83.291 25.4924 82.3511 26.4324 82.3511 27.5828C82.3511 28.7332 83.291 29.6731 84.4414 29.6731C85.5918 29.6731 86.5318 28.7332 86.5318 27.5828Z" fill="#9D44B5"/>
<path d="M111.714 22.6726C111.714 21.1855 110.507 19.979 109.02 19.979C107.533 19.979 106.327 21.1855 106.327 22.6726C106.327 24.1597 107.533 25.3662 109.02 25.3662C110.507 25.3662 111.714 24.1597 111.714 22.6726Z" fill="#9D44B5"/>
<path d="M56.4812 27.5828C56.4812 26.741 55.7938 26.0536 54.952 26.0536C54.1103 26.0536 53.4229 26.741 53.4229 27.5828C53.4229 28.4245 54.1103 29.1119 54.952 29.1119C55.7938 29.1119 56.4812 28.4245 56.4812 27.5828Z" fill="#9D44B5"/>
<path d="M121.843 22.6725C121.843 21.6484 121.324 20.7365 120.524 20.2034C120.047 19.8807 119.472 19.6984 118.854 19.6984C118.644 19.6984 118.448 19.7124 118.251 19.7545C116.89 20.0351 115.866 21.2416 115.866 22.6725C115.866 24.1175 116.89 25.324 118.251 25.6046C118.448 25.6467 118.644 25.6607 118.854 25.6607C119.472 25.6607 120.047 25.4784 120.524 25.1557C121.324 24.6086 121.843 23.6967 121.843 22.6725Z" fill="#9D44B5"/>
<path d="M16.6387 27.5827C16.6387 27.0216 16.1898 26.5586 15.6146 26.5586C15.0534 26.5586 14.6045 27.0075 14.6045 27.5827C14.6045 28.1439 15.0534 28.5928 15.6146 28.5928C16.1758 28.6068 16.6387 28.1439 16.6387 27.5827Z" fill="#9D44B5"/>
<path d="M26.585 27.5828C26.585 26.9655 26.0799 26.4604 25.4627 26.4604C24.8454 26.4604 24.3403 26.9655 24.3403 27.5828C24.3403 28.2001 24.8454 28.7051 25.4627 28.7051C26.0799 28.7051 26.585 28.2001 26.585 27.5828Z" fill="#9D44B5"/>
<path d="M36.5319 27.5828C36.5319 26.8954 35.9707 26.3342 35.2833 26.3342C34.5958 26.3342 34.0347 26.8954 34.0347 27.5828C34.0347 28.2702 34.5958 28.8314 35.2833 28.8314C35.9707 28.8314 36.5319 28.2702 36.5319 27.5828Z" fill="#9D44B5"/>
<path d="M6.70611 27.5828C6.70611 27.0777 6.29927 26.6709 5.79422 26.6709C5.28917 26.6709 4.88232 27.0777 4.88232 27.5828C4.88232 28.0878 5.28917 28.4947 5.79422 28.4947C6.29927 28.4947 6.70611 28.0878 6.70611 27.5828Z" fill="#9D44B5"/>
<path d="M46.4926 27.5827C46.4926 26.8111 45.8753 26.1938 45.1037 26.1938C44.3462 26.1938 43.7148 26.8111 43.7148 27.5827C43.7148 28.3403 44.3321 28.9716 45.1037 28.9716C45.8753 28.9716 46.4926 28.3403 46.4926 27.5827Z" fill="#9D44B5"/>
<path d="M16.6387 37.4172C16.6387 36.856 16.1898 36.4071 15.6146 36.4071C15.0534 36.4071 14.6045 36.856 14.6045 37.4172C14.6045 37.9784 15.0534 38.4413 15.6146 38.4413C16.1758 38.4273 16.6387 37.9784 16.6387 37.4172Z" fill="#9D44B5"/>
<path d="M6.70611 37.4173C6.70611 36.9122 6.29927 36.5054 5.79422 36.5054C5.28917 36.5054 4.88232 36.9122 4.88232 37.4173C4.88232 37.9223 5.28917 38.3292 5.79422 38.3292C6.29927 38.3292 6.70611 37.9223 6.70611 37.4173Z" fill="#9D44B5"/>
<path d="M26.585 37.4171C26.585 36.7998 26.0799 36.2948 25.4627 36.2948C24.8454 36.2948 24.3403 36.7998 24.3403 37.4171C24.3403 38.0344 24.8454 38.5395 25.4627 38.5395C26.0799 38.5395 26.585 38.0344 26.585 37.4171Z" fill="#9D44B5"/>
<path d="M1.48709 33.1101C1.57126 33.0259 1.62738 32.9418 1.66947 32.8295C1.71155 32.7313 1.73961 32.6051 1.73961 32.4928C1.73961 32.1982 1.58529 31.9317 1.36082 31.7633C1.22053 31.6651 1.05218 31.609 0.869806 31.609C0.813689 31.609 0.757573 31.609 0.687427 31.623C0.294612 31.7212 0 32.072 0 32.4928C0 32.6191 0.0280582 32.7313 0.0701456 32.8295C0.112233 32.9277 0.182379 33.0259 0.252524 33.1101C0.364757 33.2224 0.519078 33.3065 0.687427 33.3486C0.743544 33.3626 0.79966 33.3626 0.869806 33.3626C1.05218 33.3626 1.22053 33.3065 1.36082 33.2083C1.40291 33.1943 1.445 33.1522 1.48709 33.1101Z" fill="#9D44B5"/>
<path d="M36.5319 37.4172C36.5319 36.7297 35.9707 36.1686 35.2833 36.1686C34.5958 36.1686 34.0347 36.7297 34.0347 37.4172C34.0347 38.1046 34.5958 38.6658 35.2833 38.6658C35.9707 38.6658 36.5319 38.1046 36.5319 37.4172Z" fill="#9D44B5"/>
<path d="M46.4926 37.4172C46.4926 36.6596 45.8753 36.0283 45.1037 36.0283C44.3462 36.0283 43.7148 36.6456 43.7148 37.4172C43.7148 38.1748 44.3321 38.8061 45.1037 38.8061C45.8753 38.8061 46.4926 38.1748 46.4926 37.4172Z" fill="#9D44B5"/>
<path d="M86.5318 37.4171C86.5318 36.2667 85.5918 35.3268 84.4414 35.3268C83.291 35.3268 82.3511 36.2667 82.3511 37.4171C82.3511 38.5675 83.291 39.5075 84.4414 39.5075C85.5918 39.5075 86.5318 38.5675 86.5318 37.4171Z" fill="#9D44B5"/>
<path d="M116.779 37.4171C116.779 35.8459 115.502 34.5833 113.945 34.5833C112.373 34.5833 111.111 35.8599 111.111 37.4171C111.111 38.9884 112.387 40.251 113.945 40.251C115.502 40.251 116.779 38.9884 116.779 37.4171Z" fill="#9D44B5"/>
<path d="M106.663 37.4172C106.663 36.0002 105.513 34.8499 104.096 34.8499C102.679 34.8499 101.529 36.0002 101.529 37.4172C101.529 38.8341 102.679 39.9845 104.096 39.9845C105.527 39.9705 106.663 38.8341 106.663 37.4172Z" fill="#9D44B5"/>
<path d="M56.4812 37.4172C56.4812 36.5755 55.7938 35.8881 54.952 35.8881C54.1103 35.8881 53.4229 36.5755 53.4229 37.4172C53.4229 38.259 54.1103 38.9464 54.952 38.9464C55.7938 38.9464 56.4812 38.259 56.4812 37.4172Z" fill="#9D44B5"/>
<path d="M76.4869 37.4173C76.4869 36.3791 75.6451 35.5374 74.607 35.5374C73.5688 35.5374 72.7271 36.3791 72.7271 37.4173C72.7271 38.4554 73.5688 39.2972 74.607 39.2972C75.6451 39.2972 76.4869 38.4554 76.4869 37.4173Z" fill="#9D44B5"/>
<path d="M66.4839 37.4171C66.4839 36.4772 65.7263 35.7196 64.7864 35.7196C63.8464 35.7196 63.0889 36.4772 63.0889 37.4171C63.0889 38.3571 63.8464 39.1147 64.7864 39.1147C65.7123 39.1147 66.4839 38.3571 66.4839 37.4171Z" fill="#9D44B5"/>
<path d="M71.338 33.1945C71.4222 32.984 71.4783 32.7455 71.4783 32.493C71.4783 31.511 70.6786 30.7113 69.6966 30.7113C68.7146 30.7113 67.9009 31.511 67.9009 32.493C67.9009 32.7455 67.957 32.97 68.0412 33.1945C68.1253 33.4049 68.2656 33.6013 68.42 33.7697C68.7426 34.0923 69.1916 34.2887 69.6826 34.2887C70.1736 34.2887 70.6225 34.0923 70.9452 33.7697C71.1276 33.6013 71.2538 33.4049 71.338 33.1945Z" fill="#9D44B5"/>
<path d="M51.3747 33.0682C51.4448 32.8998 51.4869 32.7034 51.4869 32.507C51.4869 31.7073 50.8416 31.048 50.0279 31.048C49.2282 31.048 48.5688 31.6933 48.5688 32.507C48.5688 32.7034 48.6109 32.8998 48.6811 33.0682C48.7512 33.2365 48.8635 33.4049 48.9897 33.5311C49.2563 33.7977 49.621 33.952 50.0139 33.952C50.4207 33.952 50.7855 33.7837 51.038 33.5311C51.1923 33.3908 51.3045 33.2365 51.3747 33.0682Z" fill="#9D44B5"/>
<path d="M60.9987 33.6434C61.139 33.5031 61.2653 33.3207 61.3495 33.1243C61.4336 32.9279 61.4757 32.7175 61.4757 32.493C61.4757 31.9318 61.1951 31.4408 60.7602 31.1602C60.5077 30.9919 60.1991 30.8796 59.8624 30.8796C59.7501 30.8796 59.6379 30.8937 59.5397 30.9077C58.8102 31.062 58.249 31.7074 58.249 32.493C58.249 32.7175 58.2911 32.9279 58.3753 33.1243C58.4595 33.3207 58.5717 33.4891 58.726 33.6434C58.9505 33.8678 59.2311 34.0222 59.5397 34.0783C59.6379 34.1063 59.7501 34.1063 59.8624 34.1063C60.1991 34.1063 60.5077 34.0081 60.7602 33.8258C60.8584 33.7837 60.9286 33.7135 60.9987 33.6434Z" fill="#9D44B5"/>
<path d="M81.1724 33.6013C81.2425 33.4891 81.2986 33.3768 81.3548 33.2646C81.453 33.0261 81.5091 32.7736 81.5091 32.493C81.5091 32.0862 81.3828 31.7074 81.1724 31.3847C80.8217 30.8516 80.2184 30.5149 79.531 30.5149C79.3907 30.5149 79.2644 30.5289 79.1382 30.557C78.7453 30.6412 78.4086 30.8235 78.1421 31.0901C78.0579 31.1743 77.9737 31.2725 77.9036 31.3847C77.7633 31.5951 77.6651 31.8336 77.609 32.0862C77.5809 32.2124 77.5669 32.3527 77.5669 32.479C77.5669 32.6193 77.5809 32.7455 77.609 32.8718C77.637 32.998 77.6791 33.1243 77.7212 33.2506C77.7773 33.3628 77.8334 33.475 77.9036 33.5873C77.9737 33.6995 78.0579 33.7977 78.1421 33.8819C78.4086 34.1484 78.7594 34.3448 79.1382 34.429C79.2644 34.4571 79.4047 34.4711 79.531 34.4711C80.0781 34.4711 80.5691 34.2466 80.9339 33.8959C81.0181 33.8117 81.1022 33.7135 81.1724 33.6013Z" fill="#9D44B5"/>
<path d="M21.4227 33.0962C21.4648 33.0401 21.4928 32.984 21.5209 32.9138C21.577 32.7876 21.6051 32.6473 21.6051 32.493C21.6051 32.2685 21.5349 32.0721 21.4227 31.8897C21.2263 31.6091 20.9036 31.4127 20.5389 31.4127C20.4687 31.4127 20.3986 31.4267 20.3284 31.4408C20.118 31.4829 19.9356 31.5811 19.7813 31.7354C19.7392 31.7775 19.6831 31.8336 19.655 31.8897C19.5849 32.0019 19.5288 32.1282 19.5007 32.2685C19.4867 32.3386 19.4727 32.4088 19.4727 32.4789C19.4727 32.5491 19.4867 32.6192 19.5007 32.6894C19.5147 32.7595 19.5428 32.8297 19.5568 32.8858C19.5849 32.9559 19.6129 33.012 19.655 33.0682C19.6971 33.1243 19.7392 33.1804 19.7813 33.2225C19.9216 33.3628 20.118 33.475 20.3284 33.5171C20.3986 33.5311 20.4687 33.5451 20.5389 33.5451C20.8335 33.5451 21.1 33.4189 21.2964 33.2365C21.3385 33.2084 21.3806 33.1523 21.4227 33.0962Z" fill="#9D44B5"/>
<path d="M11.588 32.8717C11.6301 32.7595 11.6582 32.6332 11.6582 32.4929C11.6582 31.9598 11.2233 31.5249 10.6902 31.5249C10.1571 31.5249 9.72217 31.9598 9.72217 32.4929C9.72217 32.6332 9.75023 32.7595 9.79231 32.8717C9.8344 32.9839 9.91858 33.0962 10.0028 33.1803C10.1711 33.3487 10.4236 33.4609 10.6902 33.4609C10.9567 33.4609 11.1952 33.3487 11.3776 33.1803C11.4758 33.0962 11.546 32.9839 11.588 32.8717Z" fill="#9D44B5"/>
<path d="M91.3858 33.3486C91.4981 33.0821 91.5542 32.8015 91.5542 32.4929C91.5542 31.2864 90.5722 30.3043 89.3657 30.3043C88.1592 30.3043 87.1631 31.2864 87.1631 32.4929C87.1631 32.8015 87.2192 33.0821 87.3314 33.3486C87.4437 33.6152 87.598 33.8537 87.8084 34.0501C88.2012 34.4429 88.7484 34.6954 89.3657 34.6954C89.9689 34.6954 90.516 34.4429 90.9229 34.0501C91.1053 33.8537 91.2736 33.6152 91.3858 33.3486Z" fill="#9D44B5"/>
<path d="M31.4674 32.956C31.5235 32.8157 31.5656 32.6614 31.5656 32.493C31.5656 31.8336 31.0325 31.3005 30.3731 31.3005C29.7138 31.3005 29.1807 31.8336 29.1807 32.493C29.1807 32.6614 29.2087 32.8157 29.2789 32.956C29.335 33.0963 29.4192 33.2225 29.5314 33.3348C29.7418 33.5452 30.0364 33.6855 30.3731 33.6855C30.6958 33.6855 30.9904 33.5592 31.2149 33.3348C31.3131 33.2366 31.3973 33.0963 31.4674 32.956Z" fill="#9D44B5"/>
<path d="M41.2877 33.2365C41.3297 33.1663 41.3718 33.0962 41.4139 33.012C41.4841 32.8577 41.5121 32.6753 41.5121 32.507C41.5121 32.2404 41.4279 31.9879 41.2877 31.7775C41.0492 31.4267 40.6563 31.2023 40.1934 31.2023C40.1092 31.2023 40.011 31.2163 39.9268 31.2303C39.6743 31.2864 39.4358 31.4127 39.2675 31.5951C39.2113 31.6512 39.1552 31.7213 39.1131 31.7915C39.0149 31.9318 38.9448 32.0861 38.9167 32.2545C38.9027 32.3386 38.8887 32.4228 38.8887 32.521C38.8887 32.6052 38.9027 32.7034 38.9167 32.7876C38.9308 32.8717 38.9588 32.9559 38.9869 33.0401C39.0149 33.1243 39.057 33.1944 39.1131 33.2646C39.1552 33.3347 39.2113 33.4048 39.2675 33.461C39.4498 33.6433 39.6743 33.7696 39.9268 33.8257C40.011 33.8397 40.0952 33.8538 40.1934 33.8538C40.5581 33.8538 40.8808 33.6995 41.1193 33.475C41.1894 33.3628 41.2456 33.3066 41.2877 33.2365Z" fill="#9D44B5"/>
<path d="M131.734 33.7836C131.902 33.3907 132 32.9558 132 32.4929C132 30.6691 130.513 29.182 128.689 29.182C126.866 29.182 125.378 30.6691 125.378 32.4929C125.378 32.9558 125.477 33.3907 125.645 33.7836C125.813 34.1764 126.052 34.5411 126.36 34.8357C126.964 35.439 127.791 35.8038 128.703 35.8038C129.615 35.8038 130.443 35.439 131.046 34.8357C131.327 34.5411 131.565 34.1764 131.734 33.7836Z" fill="#9D44B5"/>
<path d="M111.503 33.5451C111.644 33.2224 111.714 32.8717 111.714 32.4929C111.714 31.0058 110.507 29.7993 109.02 29.7993C107.533 29.7993 106.327 31.0058 106.327 32.4929C106.327 32.8717 106.397 33.2224 106.537 33.5451C106.677 33.8678 106.874 34.1624 107.112 34.4009C107.603 34.8919 108.277 35.1865 109.02 35.1865C109.764 35.1865 110.437 34.8779 110.928 34.4009C111.167 34.1624 111.363 33.8678 111.503 33.5451Z" fill="#9D44B5"/>
<path d="M126.908 37.4172C126.908 35.6776 125.505 34.2747 123.765 34.2747C122.025 34.2747 120.623 35.6776 120.623 37.4172C120.623 39.1568 122.025 40.5597 123.765 40.5597C125.505 40.5597 126.908 39.1568 126.908 37.4172Z" fill="#9D44B5"/>
<path d="M120.973 34.6112C121.24 34.3447 121.464 34.022 121.618 33.6573C121.773 33.3065 121.857 32.9137 121.857 32.4929C121.857 31.4687 121.338 30.5568 120.538 30.0237C120.061 29.7011 119.486 29.5187 118.869 29.5187C118.658 29.5187 118.462 29.5327 118.265 29.5748C116.905 29.8554 115.88 31.0619 115.88 32.4929C115.88 32.8997 115.965 33.2925 116.119 33.6573C116.273 34.008 116.484 34.3307 116.764 34.6112C117.171 35.0181 117.69 35.3127 118.279 35.4249C118.476 35.467 118.672 35.4811 118.883 35.4811C119.5 35.4811 120.075 35.2987 120.552 34.976C120.678 34.8638 120.833 34.7515 120.973 34.6112Z" fill="#9D44B5"/>
<path d="M101.206 14.199C101.374 13.9465 101.501 13.6519 101.571 13.3292C101.599 13.1749 101.627 13.0065 101.627 12.8382C101.627 12.3331 101.472 11.8702 101.206 11.4773C100.771 10.832 100.027 10.4111 99.1857 10.4111C99.0173 10.4111 98.849 10.4252 98.6947 10.4672C98.2177 10.5655 97.7968 10.8039 97.4601 11.1266C97.3479 11.2388 97.2497 11.3511 97.1655 11.4914C96.9972 11.7439 96.8709 12.0385 96.8007 12.3612C96.7727 12.5155 96.7446 12.6839 96.7446 12.8522C96.7446 13.0205 96.7587 13.1889 96.8007 13.3432C96.8709 13.6659 96.9972 13.9605 97.1655 14.213C97.2497 14.3393 97.3479 14.4655 97.4601 14.5778C97.7968 14.9145 98.2177 15.1389 98.6947 15.2372C98.849 15.2652 99.0173 15.2933 99.1857 15.2933C100.027 15.2652 100.771 14.8443 101.206 14.199Z" fill="#9D44B5"/>
<path d="M111.658 13.3853C111.7 13.2029 111.714 13.0345 111.714 12.8381C111.714 11.351 110.507 10.1445 109.02 10.1445C107.533 10.1445 106.327 11.351 106.327 12.8381C106.327 13.0205 106.341 13.2029 106.383 13.3853C106.635 14.6198 107.716 15.5317 109.02 15.5317C110.325 15.5317 111.405 14.6058 111.658 13.3853Z" fill="#9D44B5"/>
<path d="M91.5121 13.2731C91.5402 13.1328 91.5542 12.9785 91.5542 12.8242C91.5542 11.6177 90.5722 10.6356 89.3657 10.6356C88.1592 10.6356 87.1631 11.6177 87.1631 12.8242C87.1631 12.9785 87.1771 13.1188 87.2052 13.2731C87.4156 14.2692 88.2994 15.0267 89.3516 15.0267C90.4178 15.0267 91.3017 14.2832 91.5121 13.2731Z" fill="#9D44B5"/>
<path d="M106.663 7.92792C106.663 6.51098 105.513 5.3606 104.096 5.3606C102.679 5.3606 101.529 6.51098 101.529 7.92792C101.529 9.34487 102.679 10.4812 104.096 10.4812C105.527 10.4812 106.663 9.33084 106.663 7.92792Z" fill="#9D44B5"/>
<path d="M101.206 24.0333C101.472 23.6405 101.627 23.1776 101.627 22.6725C101.627 22.1675 101.472 21.7045 101.206 21.3117C100.771 20.6664 100.027 20.2455 99.1857 20.2455C99.0173 20.2455 98.849 20.2595 98.6947 20.3016C98.2177 20.3998 97.7968 20.6383 97.4601 20.961C97.3479 21.0732 97.2497 21.1854 97.1655 21.3257C96.9972 21.5782 96.8709 21.8729 96.8007 22.1955C96.7727 22.3499 96.7446 22.5182 96.7446 22.6866C96.7446 22.8549 96.7587 23.0232 96.8007 23.1776C96.8709 23.5002 96.9972 23.7949 97.1655 24.0474C97.2497 24.1736 97.3479 24.2999 97.4601 24.4121C97.7968 24.7488 98.2177 24.9733 98.6947 25.0715C98.849 25.0996 99.0173 25.1276 99.1857 25.1276C100.027 25.0996 100.771 24.6787 101.206 24.0333Z" fill="#9D44B5"/>
<path d="M1.73961 22.6725C1.73961 22.3779 1.58529 22.1114 1.36082 21.943C1.22053 21.8448 1.05218 21.7887 0.869806 21.7887C0.813689 21.7887 0.757573 21.7887 0.687427 21.8027C0.294612 21.9009 0 22.2517 0 22.6725C0 23.0934 0.294612 23.4441 0.701456 23.5283C0.757573 23.5423 0.813689 23.5423 0.883835 23.5423C1.06621 23.5423 1.23456 23.4862 1.37485 23.388C1.58529 23.2337 1.73961 22.9671 1.73961 22.6725Z" fill="#9D44B5"/>
<path d="M11.6723 22.6726C11.6723 22.1395 11.2374 21.7046 10.7043 21.7046C10.1712 21.7046 9.73633 22.1395 9.73633 22.6726C9.73633 23.2057 10.1712 23.6406 10.7043 23.6406C11.2374 23.6406 11.6723 23.2057 11.6723 22.6726Z" fill="#9D44B5"/>
<path d="M61.4757 22.6726C61.4757 22.1114 61.1951 21.6204 60.7602 21.3398C60.5077 21.1714 60.1991 21.0592 59.8624 21.0592C59.7501 21.0592 59.6379 21.0732 59.5397 21.0873C58.8102 21.2416 58.249 21.8869 58.249 22.6726C58.249 23.4582 58.7962 24.1035 59.5397 24.2578C59.6379 24.2859 59.7501 24.2859 59.8624 24.2859C60.1991 24.2859 60.5077 24.1877 60.7602 24.0053C61.1951 23.7107 61.4757 23.2197 61.4757 22.6726Z" fill="#9D44B5"/>
<path d="M81.1724 23.7809C81.3828 23.4582 81.5091 23.0794 81.5091 22.6726C81.5091 22.2657 81.3828 21.8869 81.1724 21.5643C80.8217 21.0312 80.2184 20.6945 79.531 20.6945C79.3907 20.6945 79.2644 20.7085 79.1382 20.7365C78.7453 20.8207 78.4086 21.0031 78.1421 21.2697C78.0579 21.3538 77.9737 21.452 77.9036 21.5643C77.7633 21.7747 77.6651 22.0132 77.609 22.2657C77.5809 22.392 77.5669 22.5323 77.5669 22.6585C77.5669 22.7988 77.5809 22.9251 77.609 23.0514C77.6651 23.3039 77.7633 23.5424 77.9036 23.7528C77.9737 23.865 78.0579 23.9632 78.1421 24.0474C78.4086 24.314 78.7594 24.5104 79.1382 24.5946C79.2644 24.6226 79.4047 24.6366 79.531 24.6366C80.2044 24.6507 80.8076 24.2999 81.1724 23.7809Z" fill="#9D44B5"/>
<path d="M71.4783 22.6726C71.4783 21.6905 70.6786 20.8909 69.6966 20.8909C68.7146 20.8909 67.9009 21.6905 67.9009 22.6726C67.9009 23.6546 68.7005 24.4543 69.6966 24.4543C70.6786 24.4543 71.4783 23.6546 71.4783 22.6726Z" fill="#9D44B5"/>
<path d="M41.2877 23.402C41.4279 23.1916 41.5121 22.9391 41.5121 22.6725C41.5121 22.406 41.4279 22.1534 41.2877 21.943C41.0492 21.5923 40.6563 21.3678 40.1934 21.3678C40.1092 21.3678 40.011 21.3818 39.9268 21.3959C39.6743 21.452 39.4358 21.5782 39.2675 21.7606C39.2113 21.8167 39.1552 21.8869 39.1131 21.957C39.0149 22.0973 38.9448 22.2516 38.9167 22.42C38.9027 22.5042 38.8887 22.5883 38.8887 22.6865C38.8887 22.7707 38.9027 22.8689 38.9167 22.9531C38.9448 23.1214 39.0149 23.2898 39.1131 23.4161C39.1552 23.4862 39.2113 23.5563 39.2675 23.6125C39.4498 23.7948 39.6743 23.9211 39.9268 23.9772C40.011 23.9912 40.0952 24.0053 40.1934 24.0053C40.6563 23.9772 41.0492 23.7527 41.2877 23.402Z" fill="#9D44B5"/>
<path d="M31.5515 22.6726C31.5515 22.0132 31.0183 21.4801 30.359 21.4801C29.6996 21.4801 29.1665 22.0132 29.1665 22.6726C29.1665 23.3319 29.6996 23.8651 30.359 23.8651C31.0183 23.851 31.5515 23.3179 31.5515 22.6726Z" fill="#9D44B5"/>
<path d="M51.4869 22.6725C51.4869 21.8729 50.8416 21.2135 50.0279 21.2135C49.2282 21.2135 48.5688 21.8588 48.5688 22.6725C48.5688 23.4722 49.2282 24.1316 50.0279 24.1316C50.8416 24.1316 51.4869 23.4722 51.4869 22.6725Z" fill="#9D44B5"/>
<path d="M21.4227 23.2617C21.5349 23.0934 21.6051 22.883 21.6051 22.6585C21.6051 22.434 21.5349 22.2376 21.4227 22.0552C21.2263 21.7747 20.9036 21.5782 20.5389 21.5782C20.4687 21.5782 20.3986 21.5923 20.3284 21.6063C20.118 21.6484 19.9356 21.7466 19.7813 21.9009C19.7392 21.943 19.6831 21.9991 19.655 22.0552C19.5849 22.1675 19.5288 22.2937 19.5007 22.434C19.4867 22.5042 19.4727 22.5743 19.4727 22.6445C19.4727 22.7146 19.4867 22.7848 19.5007 22.8549C19.5288 22.9952 19.5849 23.1215 19.655 23.2337C19.6971 23.2898 19.7392 23.3459 19.7813 23.388C19.9216 23.5283 20.118 23.6405 20.3284 23.6826C20.3986 23.6966 20.4687 23.7107 20.5389 23.7107C20.9036 23.7387 21.2263 23.5564 21.4227 23.2617Z" fill="#9D44B5"/>
<path d="M116.779 17.7483C116.779 16.177 115.502 14.9144 113.945 14.9144C112.373 14.9144 111.111 16.1911 111.111 17.7483C111.111 19.3196 112.387 20.5822 113.945 20.5822C115.502 20.5962 116.779 19.3196 116.779 17.7483Z" fill="#9D44B5"/>
<path d="M106.663 17.7484C106.663 16.3314 105.513 15.181 104.096 15.181C102.679 15.181 101.529 16.3314 101.529 17.7484C101.529 19.1653 102.679 20.3157 104.096 20.3157C105.527 20.3157 106.663 19.1653 106.663 17.7484Z" fill="#9D44B5"/>
<path d="M96.5905 17.7484C96.5905 16.4717 95.5524 15.4336 94.2757 15.4336C92.9991 15.4336 91.9609 16.4717 91.9609 17.7484C91.9609 19.025 92.9991 20.0632 94.2757 20.0632C95.5524 20.0632 96.5905 19.025 96.5905 17.7484Z" fill="#9D44B5"/>
<path d="M106.663 57.072C106.663 55.655 105.513 54.5046 104.096 54.5046C102.679 54.5046 101.529 55.655 101.529 57.072C101.529 58.4889 102.679 59.6393 104.096 59.6393C105.527 59.6393 106.663 58.4889 106.663 57.072Z" fill="#9D44B5"/>
<path d="M96.5905 57.0719C96.5905 55.7952 95.5524 54.7571 94.2757 54.7571C92.9991 54.7571 91.9609 55.7952 91.9609 57.0719C91.9609 58.3485 92.9991 59.3867 94.2757 59.3867C95.5524 59.3867 96.5905 58.3485 96.5905 57.0719Z" fill="#9D44B5"/>
<path d="M86.5318 57.0719C86.5318 55.9215 85.5918 54.9816 84.4414 54.9816C83.291 54.9816 82.3511 55.9215 82.3511 57.0719C82.3511 58.2223 83.291 59.1622 84.4414 59.1622C85.5918 59.1622 86.5318 58.2223 86.5318 57.0719Z" fill="#9D44B5"/>
<path d="M101.206 63.357C101.472 62.9641 101.627 62.5012 101.627 61.9961C101.627 61.4911 101.472 61.0281 101.206 60.6353C100.771 59.99 100.027 59.5691 99.1857 59.5691C99.0173 59.5691 98.849 59.5831 98.6947 59.6252C98.2177 59.7234 97.7968 59.9619 97.4601 60.2846C97.3479 60.3968 97.2497 60.509 97.1655 60.6493C96.9972 60.9019 96.8709 61.1965 96.8007 61.5191C96.7727 61.6735 96.7446 61.8418 96.7446 62.0102C96.7446 62.1785 96.7587 62.3469 96.8007 62.5012C96.8709 62.8238 96.9972 63.1185 97.1655 63.371C97.2497 63.4972 97.3479 63.6235 97.4601 63.7357C97.7968 64.0724 98.2177 64.2969 98.6947 64.3951C98.849 64.4232 99.0173 64.4512 99.1857 64.4512C100.027 64.4232 100.771 64.0023 101.206 63.357Z" fill="#9D44B5"/>
<path d="M81.1724 63.1045C81.3828 62.7818 81.5091 62.403 81.5091 61.9962C81.5091 61.5893 81.3828 61.2105 81.1724 60.8879C80.8217 60.3548 80.2184 60.0181 79.531 60.0181C79.3907 60.0181 79.2644 60.0321 79.1382 60.0602C78.7453 60.1443 78.4086 60.3267 78.1421 60.5933C78.0579 60.6774 77.9737 60.7756 77.9036 60.8879C77.7633 61.0983 77.6651 61.3368 77.609 61.5893C77.5809 61.7156 77.5669 61.8559 77.5669 61.9821C77.5669 62.1084 77.5809 62.2487 77.609 62.375C77.6651 62.6275 77.7633 62.866 77.9036 63.0904C77.9737 63.2027 78.0579 63.3009 78.1421 63.3851C78.4086 63.6516 78.7594 63.848 79.1382 63.9322C79.2644 63.9603 79.4047 63.9743 79.531 63.9743C80.2044 63.9743 80.8076 63.6236 81.1724 63.1045Z" fill="#9D44B5"/>
<path d="M91.5542 61.9962C91.5542 60.7897 90.5722 59.8076 89.3657 59.8076C88.1592 59.8076 87.1631 60.7897 87.1631 61.9962C87.1631 63.2027 88.1451 64.1987 89.3657 64.1987C90.5722 64.1847 91.5542 63.2027 91.5542 61.9962Z" fill="#9D44B5"/>
<path d="M101.206 43.6883C101.472 43.2954 101.627 42.8325 101.627 42.3274C101.627 41.8224 101.472 41.3594 101.206 40.9666C100.771 40.3213 100.027 39.9004 99.1857 39.9004C99.0173 39.9004 98.849 39.9144 98.6947 39.9565C98.2177 40.0547 97.7968 40.2932 97.4601 40.6159C97.3479 40.7281 97.2497 40.8403 97.1655 40.9806C96.9972 41.2332 96.8709 41.5278 96.8007 41.8504C96.7727 42.0048 96.7446 42.1731 96.7446 42.3415C96.7446 42.5098 96.7587 42.6782 96.8007 42.8325C96.8709 43.1551 96.9972 43.4498 97.1655 43.7023C97.2497 43.8285 97.3479 43.9548 97.4601 44.067C97.7968 44.4037 98.2177 44.6282 98.6947 44.7264C98.849 44.7545 99.0173 44.7825 99.1857 44.7825C100.027 44.7685 100.771 44.3336 101.206 43.6883Z" fill="#9D44B5"/>
<path d="M121.843 42.3273C121.843 41.3032 121.324 40.3913 120.524 39.8582C120.047 39.5355 119.472 39.3531 118.854 39.3531C118.644 39.3531 118.448 39.3672 118.251 39.4093C116.89 39.6898 115.866 40.8964 115.866 42.3273C115.866 43.7723 116.89 44.9788 118.251 45.2594C118.448 45.3015 118.644 45.3155 118.854 45.3155C119.472 45.3155 120.047 45.1331 120.524 44.8105C121.324 44.2633 121.843 43.3655 121.843 42.3273Z" fill="#9D44B5"/>
<path d="M81.1724 43.4357C81.3828 43.113 81.5091 42.7342 81.5091 42.3273C81.5091 41.9205 81.3828 41.5417 81.1724 41.219C80.8217 40.6859 80.2184 40.3492 79.531 40.3492C79.3907 40.3492 79.2644 40.3633 79.1382 40.3913C78.7453 40.4755 78.4086 40.6579 78.1421 40.9244C78.0579 41.0086 77.9737 41.1068 77.9036 41.219C77.7633 41.4295 77.6651 41.668 77.609 41.9205C77.5809 42.0468 77.5669 42.1871 77.5669 42.3133C77.5669 42.4396 77.5809 42.5799 77.609 42.7061C77.6651 42.9587 77.7633 43.1972 77.9036 43.4216C77.9737 43.5339 78.0579 43.6321 78.1421 43.7162C78.4086 43.9828 78.7594 44.1792 79.1382 44.2634C79.2644 44.2914 79.4047 44.3055 79.531 44.3055C80.2044 44.3055 80.8076 43.9688 81.1724 43.4357Z" fill="#9D44B5"/>
<path d="M111.714 42.3274C111.714 40.8403 110.507 39.6338 109.02 39.6338C107.533 39.6338 106.327 40.8403 106.327 42.3274C106.327 43.8145 107.533 45.021 109.02 45.021C110.507 45.021 111.714 43.8145 111.714 42.3274Z" fill="#9D44B5"/>
<path d="M51.4869 42.3273C51.4869 41.5277 50.8416 40.8683 50.0279 40.8683C49.2282 40.8683 48.5688 41.5136 48.5688 42.3273C48.5688 43.127 49.2282 43.7863 50.0279 43.7863C50.8416 43.7863 51.4869 43.141 51.4869 42.3273Z" fill="#9D44B5"/>
<path d="M31.5515 42.3274C31.5515 41.668 31.0183 41.1349 30.359 41.1349C29.6996 41.1349 29.1665 41.668 29.1665 42.3274C29.1665 42.9867 29.6996 43.5198 30.359 43.5198C31.0183 43.5198 31.5515 42.9867 31.5515 42.3274Z" fill="#9D44B5"/>
<path d="M41.2877 43.0708C41.4279 42.8604 41.5121 42.6079 41.5121 42.3413C41.5121 42.0748 41.4279 41.8223 41.2877 41.6118C41.0492 41.2611 40.6563 41.0366 40.1934 41.0366C40.1092 41.0366 40.011 41.0507 39.9268 41.0647C39.6743 41.1208 39.4358 41.2471 39.2675 41.4294C39.2113 41.4856 39.1552 41.5557 39.1131 41.6258C39.0149 41.7661 38.9448 41.9205 38.9167 42.0888C38.9027 42.173 38.8887 42.2572 38.8887 42.3554C38.8887 42.4395 38.9027 42.5377 38.9167 42.6219C38.9448 42.7903 39.0149 42.9586 39.1131 43.0849C39.1552 43.155 39.2113 43.2252 39.2675 43.2813C39.4498 43.4637 39.6743 43.5899 39.9268 43.646C40.011 43.6601 40.0952 43.6741 40.1934 43.6741C40.6563 43.646 41.0492 43.4216 41.2877 43.0708Z" fill="#9D44B5"/>
<path d="M61.4757 42.3275C61.4757 41.7663 61.1951 41.2753 60.7602 40.9947C60.5077 40.8263 60.1991 40.7141 59.8624 40.7141C59.7501 40.7141 59.6379 40.7281 59.5397 40.7422C58.8102 40.8965 58.249 41.5418 58.249 42.3275C58.249 43.1131 58.7962 43.7584 59.5397 43.9128C59.6379 43.9408 59.7501 43.9408 59.8624 43.9408C60.1991 43.9408 60.5077 43.8426 60.7602 43.6602C61.1951 43.3796 61.4757 42.8886 61.4757 42.3275Z" fill="#9D44B5"/>
<path d="M1.73961 42.3273C1.73961 42.0327 1.58529 41.7662 1.36082 41.5978C1.22053 41.4996 1.05218 41.4435 0.869806 41.4435C0.813689 41.4435 0.757573 41.4435 0.687427 41.4575C0.294612 41.5557 0 41.9064 0 42.3273C0 42.7482 0.294612 43.0989 0.701456 43.1831C0.757573 43.1971 0.813689 43.1971 0.883835 43.1971C1.06621 43.1971 1.23456 43.141 1.37485 43.0428C1.58529 42.9025 1.73961 42.636 1.73961 42.3273Z" fill="#9D44B5"/>
<path d="M71.4783 42.3274C71.4783 41.3453 70.6786 40.5457 69.6966 40.5457C68.7146 40.5457 67.9009 41.3453 67.9009 42.3274C67.9009 43.3094 68.7005 44.1091 69.6966 44.1091C70.6786 44.1231 71.4783 43.3234 71.4783 42.3274Z" fill="#9D44B5"/>
<path d="M11.6723 42.3274C11.6723 41.7943 11.2374 41.3594 10.7043 41.3594C10.1712 41.3594 9.73633 41.7943 9.73633 42.3274C9.73633 42.8605 10.1712 43.2954 10.7043 43.2954C11.2374 43.2954 11.6723 42.8605 11.6723 42.3274Z" fill="#9D44B5"/>
<path d="M21.4227 42.9306C21.5349 42.7622 21.6051 42.5518 21.6051 42.3273C21.6051 42.1028 21.5349 41.9064 21.4227 41.7241C21.2263 41.4435 20.9036 41.2471 20.5389 41.2471C20.4687 41.2471 20.3986 41.2611 20.3284 41.2751C20.118 41.3172 19.9356 41.4154 19.7813 41.5697C19.7392 41.6118 19.6831 41.6679 19.655 41.7241C19.5849 41.8363 19.5288 41.9626 19.5007 42.1028C19.4867 42.173 19.4727 42.2431 19.4727 42.3133C19.4727 42.3834 19.4867 42.4536 19.5007 42.5237C19.5288 42.664 19.5849 42.7903 19.655 42.9025C19.6971 42.9586 19.7392 43.0147 19.7813 43.0568C19.9216 43.1971 20.118 43.3094 20.3284 43.3514C20.3986 43.3655 20.4687 43.3795 20.5389 43.3795C20.9036 43.4076 21.2263 43.2111 21.4227 42.9306Z" fill="#9D44B5"/>
<path d="M111.503 53.214C111.644 52.8914 111.714 52.5406 111.714 52.1619C111.714 50.6748 110.507 49.4683 109.02 49.4683C107.533 49.4683 106.327 50.6748 106.327 52.1619C106.327 52.5406 106.397 52.8914 106.537 53.214C106.677 53.5367 106.874 53.8313 107.112 54.0698C107.603 54.5608 108.277 54.8554 109.02 54.8554C109.764 54.8554 110.437 54.5468 110.928 54.0698C111.167 53.8173 111.363 53.5367 111.503 53.214Z" fill="#9D44B5"/>
<path d="M101.206 53.5225C101.29 53.3962 101.374 53.2559 101.43 53.1156C101.557 52.821 101.627 52.4984 101.627 52.1757C101.627 51.6706 101.472 51.2077 101.206 50.8149C100.771 50.1695 100.027 49.7487 99.1857 49.7487C99.0173 49.7487 98.849 49.7627 98.6947 49.8048C98.2177 49.903 97.7968 50.1415 97.4601 50.4641C97.3479 50.5764 97.2497 50.6886 97.1655 50.8289C96.9972 51.0814 96.8709 51.376 96.8007 51.6987C96.7727 51.853 96.7446 52.0214 96.7446 52.1897C96.7446 52.3581 96.7587 52.5264 96.8007 52.6807C96.8288 52.8351 96.8849 52.9894 96.941 53.1437C96.9972 53.284 97.0813 53.4243 97.1655 53.5505C97.2497 53.6768 97.3479 53.8031 97.4601 53.9153C97.7968 54.252 98.2177 54.4765 98.6947 54.5747C98.849 54.6027 99.0173 54.6308 99.1857 54.6308C99.8591 54.6308 100.462 54.3642 100.911 53.9153C101.024 53.775 101.122 53.6488 101.206 53.5225Z" fill="#9D44B5"/>
<path d="M91.3858 53.0176C91.4981 52.751 91.5542 52.4704 91.5542 52.1618C91.5542 50.9553 90.5722 49.9733 89.3657 49.9733C88.1592 49.9733 87.1631 50.9553 87.1631 52.1618C87.1631 52.4704 87.2192 52.751 87.3314 53.0176C87.4437 53.2841 87.598 53.5226 87.8084 53.719C88.2012 54.1119 88.7484 54.3644 89.3657 54.3644C89.9689 54.3644 90.516 54.1119 90.9229 53.719C91.1053 53.5086 91.2736 53.2841 91.3858 53.0176Z" fill="#9D44B5"/>
<path d="M106.663 47.2515C106.663 45.8346 105.513 44.6842 104.096 44.6842C102.679 44.6842 101.529 45.8346 101.529 47.2515C101.529 48.6685 102.679 49.8048 104.096 49.8048C105.527 49.8048 106.663 48.6544 106.663 47.2515Z" fill="#9D44B5"/>
<path d="M96.5905 7.91393C96.5905 6.63728 95.5524 5.59912 94.2757 5.59912C92.9991 5.59912 91.9609 6.63728 91.9609 7.91393C91.9609 9.19058 92.9991 10.2287 94.2757 10.2287C95.5524 10.2287 96.5905 9.19058 96.5905 7.91393Z" fill="#9D44B5"/>
<path d="M96.5905 47.2516C96.5905 45.9749 95.5524 44.9368 94.2757 44.9368C92.9991 44.9368 91.9609 45.9749 91.9609 47.2516C91.9609 48.5282 92.9991 49.5664 94.2757 49.5664C95.5524 49.5523 96.5905 48.5282 96.5905 47.2516Z" fill="#9D44B5"/>
<path d="M116.779 47.2516C116.779 45.6803 115.502 44.4177 113.945 44.4177C112.373 44.4177 111.111 45.6944 111.111 47.2516C111.111 48.8229 112.387 50.0855 113.945 50.0855C115.502 50.0855 116.779 48.8088 116.779 47.2516Z" fill="#9D44B5"/>
<path d="M86.5318 7.91383C86.5318 6.76344 85.5918 5.82349 84.4414 5.82349C83.291 5.82349 82.3511 6.76344 82.3511 7.91383C82.3511 9.06421 83.291 10.0042 84.4414 10.0042C85.5918 10.0042 86.5318 9.07824 86.5318 7.91383Z" fill="#9D44B5"/>
<path d="M101.206 4.36452C101.472 3.97171 101.627 3.50875 101.627 3.0037C101.627 2.49865 101.472 2.03569 101.206 1.64287C100.771 0.997533 100.027 0.57666 99.1857 0.57666C99.0173 0.57666 98.849 0.590689 98.6947 0.632777C98.2177 0.73098 97.7968 0.969476 97.4601 1.29215C97.3619 1.39035 97.2637 1.51661 97.1795 1.64287C96.9971 1.90943 96.8709 2.20404 96.8007 2.51268C96.7727 2.667 96.7446 2.83535 96.7446 3.0037C96.7446 3.17205 96.7727 3.3404 96.8007 3.49472C96.8709 3.81739 96.9972 4.112 97.1655 4.36452C97.2497 4.49078 97.3479 4.61705 97.4601 4.72928C97.7968 5.06598 98.2177 5.29044 98.6947 5.38865C98.849 5.41671 99.0173 5.44477 99.1857 5.44477C100.027 5.44477 100.771 5.00986 101.206 4.36452Z" fill="#9D44B5"/>
<path d="M91.5542 3.00373C91.5542 1.79722 90.5722 0.815186 89.3657 0.815186C88.1592 0.815186 87.1631 1.79722 87.1631 3.00373C87.1631 4.21023 88.1451 5.2063 89.3657 5.2063C90.5722 5.2063 91.5542 4.21023 91.5542 3.00373Z" fill="#9D44B5"/>
<path d="M81.1724 4.11204C81.3828 3.78937 81.5091 3.41059 81.5091 3.00374C81.5091 2.5969 81.3828 2.21811 81.1724 1.89544C80.8217 1.36233 80.2184 1.02563 79.531 1.02563C79.3907 1.02563 79.2644 1.03966 79.1382 1.06772C78.7453 1.1519 78.4086 1.33428 78.1421 1.60083C78.0579 1.685 77.9737 1.78321 77.9036 1.89544C77.7633 2.10588 77.6651 2.34437 77.609 2.5969C77.5809 2.72316 77.5669 2.86345 77.5669 2.98971C77.5669 3.13 77.5809 3.25627 77.609 3.38253C77.6651 3.63505 77.7633 3.87355 77.9036 4.09801C77.9737 4.21025 78.0579 4.30845 78.1421 4.39262C78.4086 4.65918 78.7594 4.85559 79.1382 4.93976C79.2644 4.96782 79.4047 4.98185 79.531 4.98185C80.2044 4.98185 80.8076 4.64515 81.1724 4.11204Z" fill="#9D44B5"/>
</svg>
