<svg width="256" height="256" viewBox="0 0 256 256" fill="none" xmlns="http://www.w3.org/2000/svg">
<rect y="-0.0078125" width="4" height="4" fill="#9D44B5"/>
<rect x="28" y="-0.0078125" width="4" height="4" fill="#9D44B5"/>
<rect x="56" y="-0.0078125" width="4" height="4" fill="#9D44B5"/>
<rect x="84" y="-0.0078125" width="4" height="4" fill="#9D44B5"/>
<rect x="112" y="-0.0078125" width="4" height="4" fill="#9D44B5"/>
<rect x="140" y="-0.0078125" width="4" height="4" fill="#9D44B5"/>
<rect x="168" y="-0.0078125" width="4" height="4" fill="#9D44B5"/>
<rect x="196" y="-0.0078125" width="4" height="4" fill="#9D44B5"/>
<rect x="224" y="-0.0078125" width="4" height="4" fill="#9D44B5"/>
<rect x="252" y="-0.0078125" width="4" height="4" fill="#9D44B5"/>
<rect y="27.9922" width="4" height="4" fill="#9D44B5"/>
<rect x="28" y="27.9922" width="4" height="4" fill="#9D44B5"/>
<rect x="56" y="27.9922" width="4" height="4" fill="#9D44B5"/>
<rect x="84" y="27.9922" width="4" height="4" fill="#9D44B5"/>
<rect x="112" y="27.9922" width="4" height="4" fill="#9D44B5"/>
<rect x="140" y="27.9922" width="4" height="4" fill="#9D44B5"/>
<rect x="168" y="27.9922" width="4" height="4" fill="#9D44B5"/>
<rect x="196" y="27.9922" width="4" height="4" fill="#9D44B5"/>
<rect x="224" y="27.9922" width="4" height="4" fill="#9D44B5"/>
<rect x="252" y="27.9922" width="4" height="4" fill="#9D44B5"/>
<rect y="55.9922" width="4" height="4" fill="#9D44B5"/>
<rect x="28" y="55.9922" width="4" height="4" fill="#9D44B5"/>
<rect x="56" y="55.9922" width="4" height="4" fill="#9D44B5"/>
<rect x="84" y="55.9922" width="4" height="4" fill="#9D44B5"/>
<rect x="112" y="55.9922" width="4" height="4" fill="#9D44B5"/>
<rect x="140" y="55.9922" width="4" height="4" fill="#9D44B5"/>
<rect x="168" y="55.9922" width="4" height="4" fill="#9D44B5"/>
<rect x="196" y="55.9922" width="4" height="4" fill="#9D44B5"/>
<rect x="224" y="55.9922" width="4" height="4" fill="#9D44B5"/>
<rect x="252" y="55.9922" width="4" height="4" fill="#9D44B5"/>
<rect y="83.9922" width="4" height="4" fill="#9D44B5"/>
<rect x="28" y="83.9922" width="4" height="4" fill="#9D44B5"/>
<rect x="56" y="83.9922" width="4" height="4" fill="#9D44B5"/>
<rect x="84" y="83.9922" width="4" height="4" fill="#9D44B5"/>
<rect x="112" y="83.9922" width="4" height="4" fill="#9D44B5"/>
<rect x="140" y="83.9922" width="4" height="4" fill="#9D44B5"/>
<rect x="168" y="83.9922" width="4" height="4" fill="#9D44B5"/>
<rect x="196" y="83.9922" width="4" height="4" fill="#9D44B5"/>
<rect x="224" y="83.9922" width="4" height="4" fill="#9D44B5"/>
<rect x="252" y="83.9922" width="4" height="4" fill="#9D44B5"/>
<rect y="111.992" width="4" height="4" fill="#9D44B5"/>
<rect x="28" y="111.992" width="4" height="4" fill="#9D44B5"/>
<rect x="56" y="111.992" width="4" height="4" fill="#9D44B5"/>
<rect x="84" y="111.992" width="4" height="4" fill="#9D44B5"/>
<rect x="112" y="111.992" width="4" height="4" fill="#9D44B5"/>
<rect x="140" y="111.992" width="4" height="4" fill="#9D44B5"/>
<rect x="168" y="111.992" width="4" height="4" fill="#9D44B5"/>
<rect x="196" y="111.992" width="4" height="4" fill="#9D44B5"/>
<rect x="224" y="111.992" width="4" height="4" fill="#9D44B5"/>
<rect x="252" y="111.992" width="4" height="4" fill="#9D44B5"/>
<rect y="139.992" width="4" height="4" fill="#9D44B5"/>
<rect x="28" y="139.992" width="4" height="4" fill="#9D44B5"/>
<rect x="56" y="139.992" width="4" height="4" fill="#9D44B5"/>
<rect x="84" y="139.992" width="4" height="4" fill="#9D44B5"/>
<rect x="112" y="139.992" width="4" height="4" fill="#9D44B5"/>
<rect x="140" y="139.992" width="4" height="4" fill="#9D44B5"/>
<rect x="168" y="139.992" width="4" height="4" fill="#9D44B5"/>
<rect x="196" y="139.992" width="4" height="4" fill="#9D44B5"/>
<rect x="224" y="139.992" width="4" height="4" fill="#9D44B5"/>
<rect x="252" y="139.992" width="4" height="4" fill="#9D44B5"/>
<rect y="167.992" width="4" height="4" fill="#9D44B5"/>
<rect x="28" y="167.992" width="4" height="4" fill="#9D44B5"/>
<rect x="56" y="167.992" width="4" height="4" fill="#9D44B5"/>
<rect x="84" y="167.992" width="4" height="4" fill="#9D44B5"/>
<rect x="112" y="167.992" width="4" height="4" fill="#9D44B5"/>
<rect x="140" y="167.992" width="4" height="4" fill="#9D44B5"/>
<rect x="168" y="167.992" width="4" height="4" fill="#9D44B5"/>
<rect x="196" y="167.992" width="4" height="4" fill="#9D44B5"/>
<rect x="224" y="167.992" width="4" height="4" fill="#9D44B5"/>
<rect x="252" y="167.992" width="4" height="4" fill="#9D44B5"/>
<rect y="195.992" width="4" height="4" fill="#9D44B5"/>
<rect x="28" y="195.992" width="4" height="4" fill="#9D44B5"/>
<rect x="56" y="195.992" width="4" height="4" fill="#9D44B5"/>
<rect x="84" y="195.992" width="4" height="4" fill="#9D44B5"/>
<rect x="112" y="195.992" width="4" height="4" fill="#9D44B5"/>
<rect x="140" y="195.992" width="4" height="4" fill="#9D44B5"/>
<rect x="168" y="195.992" width="4" height="4" fill="#9D44B5"/>
<rect x="196" y="195.992" width="4" height="4" fill="#9D44B5"/>
<rect x="224" y="195.992" width="4" height="4" fill="#9D44B5"/>
<rect x="252" y="195.992" width="4" height="4" fill="#9D44B5"/>
<rect y="223.992" width="4" height="4" fill="#9D44B5"/>
<rect x="28" y="223.992" width="4" height="4" fill="#9D44B5"/>
<rect x="56" y="223.992" width="4" height="4" fill="#9D44B5"/>
<rect x="84" y="223.992" width="4" height="4" fill="#9D44B5"/>
<rect x="112" y="223.992" width="4" height="4" fill="#9D44B5"/>
<rect x="140" y="223.992" width="4" height="4" fill="#9D44B5"/>
<rect x="168" y="223.992" width="4" height="4" fill="#9D44B5"/>
<rect x="196" y="223.992" width="4" height="4" fill="#9D44B5"/>
<rect x="224" y="223.992" width="4" height="4" fill="#9D44B5"/>
<rect x="252" y="223.992" width="4" height="4" fill="#9D44B5"/>
<rect y="251.992" width="4" height="4" fill="#9D44B5"/>
<rect x="28" y="251.992" width="4" height="4" fill="#9D44B5"/>
<rect x="56" y="251.992" width="4" height="4" fill="#9D44B5"/>
<rect x="84" y="251.992" width="4" height="4" fill="#9D44B5"/>
<rect x="112" y="251.992" width="4" height="4" fill="#9D44B5"/>
<rect x="140" y="251.992" width="4" height="4" fill="#9D44B5"/>
<rect x="168" y="251.992" width="4" height="4" fill="#9D44B5"/>
<rect x="196" y="251.992" width="4" height="4" fill="#9D44B5"/>
<rect x="224" y="251.992" width="4" height="4" fill="#9D44B5"/>
<rect x="252" y="251.992" width="4" height="4" fill="#9D44B5"/>
</svg>
